<svg width="77" height="77" viewBox="0 0 77 77" fill="none" xmlns="http://www.w3.org/2000/svg">
<g clip-path="url(#clip0_31_187)">
<path d="M38.4997 76.9993C59.7624 76.9993 76.9993 59.7624 76.9993 38.4997C76.9993 17.2369 59.7624 0 38.4997 0C17.2369 0 0 17.2369 0 38.4997C0 59.7624 17.2369 76.9993 38.4997 76.9993Z" fill="black" fill-opacity="0.6"/>
<path d="M34.889 28.0327C34.4078 22.2578 28.3922 19.4906 28.1516 19.3703C27.7906 19.25 27.55 19.25 27.3094 19.25C20.3313 20.4531 19.3688 24.4234 19.2485 24.664V25.3859C27.55 51.1325 44.7545 55.8247 50.4092 57.3887C50.8904 57.509 51.2514 57.6294 51.492 57.7497C51.6123 57.7497 51.7326 57.87 51.8529 57.87C52.0935 57.87 52.2139 57.87 52.4545 57.7497C52.5748 57.6294 56.6654 55.7044 57.7482 49.4482C57.7482 49.2076 57.7482 48.8466 57.6279 48.606C57.5076 48.4857 55.342 44.3951 49.4467 42.9514C49.0858 42.831 48.6045 42.9514 48.2436 43.192C46.3186 44.756 43.7921 46.4404 42.7093 46.681C35.2499 43.0717 31.039 35.9733 30.9187 34.6499C30.7984 33.928 32.4828 31.2811 34.5281 29.1155C34.7687 28.8749 34.889 28.3937 34.889 28.0327Z" fill="white"/>
</g>
<defs>
<clipPath id="clip0_31_187">
<rect width="76.2786" height="76.2786" fill="white" transform="scale(1.00945)"/>
</clipPath>
</defs>
</svg>
