<svg width="64" height="64" viewBox="0 0 64 64" fill="none" xmlns="http://www.w3.org/2000/svg">
<mask id="mask0_31_162" style="mask-type:alpha" maskUnits="userSpaceOnUse" x="-76" y="-76" width="145" height="145">
<rect x="68.992" y="68.9918" width="144" height="144" transform="rotate(-180 68.992 68.9918)" fill="#D9D9D9"/>
</mask>
<g mask="url(#mask0_31_162)">
<path d="M31.9998 19.2L19.1998 32L23.6798 36.48L28.7998 31.36L28.7998 44.8L35.1998 44.8L35.1998 31.36L40.3198 36.48L44.7998 32L31.9998 19.2ZM31.9998 2.79007e-05C36.4264 2.82877e-05 40.5864 0.840563 44.4798 2.52163C48.3731 4.20056 51.7598 6.48002 54.6398 9.36002C57.5198 12.24 59.7992 15.6267 61.4782 19.52C63.1592 23.4134 63.9998 27.5734 63.9998 32C63.9998 36.4267 63.1592 40.5867 61.4782 44.48C59.7992 48.3733 57.5198 51.76 54.6398 54.64C51.7598 57.52 48.3731 59.8005 44.4798 61.4816C40.5864 63.1605 36.4264 64 31.9998 64C27.5731 64 23.4131 63.1605 19.5198 61.4816C15.6264 59.8005 12.2398 57.52 9.35978 54.64C6.47978 51.76 4.20032 48.3733 2.52138 44.48C0.840321 40.5867 -0.000212477 36.4267 -0.00021209 32C-0.000211703 27.5733 0.840323 23.4133 2.52139 19.52C4.20032 15.6267 6.47978 12.24 9.35978 9.36002C12.2398 6.48002 15.6264 4.20056 19.5198 2.52162C23.4131 0.840561 27.5731 2.75138e-05 31.9998 2.79007e-05ZM31.9998 6.40002C24.8531 6.40002 18.7998 8.88002 13.8398 13.84C8.87979 18.8 6.39978 24.8533 6.39978 32C6.39978 39.1467 8.87978 45.2 13.8398 50.16C18.7998 55.12 24.8531 57.6 31.9998 57.6C39.1464 57.6 45.1998 55.12 50.1598 50.16C55.1198 45.2 57.5998 39.1467 57.5998 32C57.5998 24.8533 55.1198 18.8 50.1598 13.84C45.1998 8.88003 39.1464 6.40002 31.9998 6.40002Z" fill="white" fill-opacity="0.8"/>
</g>
</svg>
