<svg width="77" height="77" viewBox="0 0 77 77" fill="none" xmlns="http://www.w3.org/2000/svg">
<path d="M38.4997 76.9993C59.7624 76.9993 76.9993 59.7624 76.9993 38.4997C76.9993 17.2369 59.7624 0 38.4997 0C17.2369 0 0 17.2369 0 38.4997C0 59.7624 17.2369 76.9993 38.4997 76.9993Z" fill="black" fill-opacity="0.6"/>
<path opacity="0.2" d="M62.5624 52.9369C62.5624 55.5837 60.3968 57.7493 57.75 57.7493H19.2503C16.6035 57.7493 14.4379 55.5837 14.4379 52.9369V28.8746C14.4379 26.2277 16.6035 24.0621 19.2503 24.0621H57.75C60.3968 24.0621 62.5624 26.2277 62.5624 28.8746V52.9369Z" fill="#231F20"/>
<path d="M62.5624 50.5306C62.5624 53.1774 60.3968 55.343 57.75 55.343H19.2503C16.6035 55.343 14.4379 53.1774 14.4379 50.5306V26.4683C14.4379 23.8214 16.6035 21.6558 19.2503 21.6558H57.75C60.3968 21.6558 62.5624 23.8214 62.5624 26.4683V50.5306Z" fill="#E0E0D1"/>
<path opacity="0.2" d="M42.7108 36.3339C40.4249 33.8074 36.575 33.8074 34.289 36.3339L15.6408 51.9744C15.4001 52.2151 15.2798 52.4557 15.0392 52.6963C15.8814 54.2604 17.4454 55.3432 19.1298 55.3432H57.6295C59.4341 55.3432 60.8779 54.2604 61.72 52.6963C61.5997 52.4557 61.3591 52.2151 61.1185 51.9744L42.7108 36.3339Z" fill="#231F20"/>
<path d="M42.7108 38.4997C40.4249 36.2137 36.575 36.2137 34.289 38.4997L15.6408 52.3355C15.4001 52.5761 15.2798 52.6964 15.0392 52.937C15.8814 54.3808 17.4454 55.223 19.1298 55.223H57.6295C59.4341 55.223 60.8779 54.2605 61.72 52.937C61.5997 52.6964 61.3591 52.5761 61.1185 52.3355L42.7108 38.4997Z" fill="#E0E0D1"/>
<path opacity="0.2" d="M15.1595 24.3027C16.0016 22.7386 17.5657 21.6558 19.2501 21.6558H57.7497C59.5544 21.6558 60.9981 22.7386 61.8403 24.3027C61.72 24.5433 61.4794 24.7839 61.2388 25.0245L42.7108 40.665C40.4249 43.1916 36.5749 43.1916 34.289 40.665L15.1595 24.3027Z" fill="#231F20"/>
<path d="M34.289 38.4999C36.5749 40.7858 40.4249 40.7858 42.7108 38.4999L61.3591 24.6641C61.5997 24.4234 61.72 24.3031 61.9606 24.0625C61.1184 22.6188 59.5544 21.7766 57.87 21.7766H19.2501C17.4454 21.7766 16.0016 22.7391 15.1595 24.0625C15.2798 24.3031 15.5204 24.4234 15.761 24.6641L34.289 38.4999Z" fill="white"/>
</svg>
